<?xml version="1.0" encoding="UTF-8"?>
<svg width="150" height="140" xmlns="http://www.w3.org/2000/svg" viewBox="0 0 210.97 209.25">
  <defs>
    <style>
      .cls-1 {
        fill: #a0774b;
      }

      .cls-1, .cls-2, .cls-3, .cls-4, .cls-5, .cls-6, .cls-7, .cls-8, .cls-9, .cls-10 {
        stroke-miterlimit: 10;
      }

      .cls-1, .cls-3, .cls-4, .cls-5, .cls-6, .cls-7, .cls-8, .cls-9, .cls-10 {
        stroke: #1a120b;
      }

      .cls-2 {
        fill: none;
        stroke: #000;
      }

      .cls-3 {
        fill: #fff;
      }

      .cls-11 {
        isolation: isolate;
      }

      .cls-4 {
        fill: #356b87;
      }

      .cls-12 {
        fill: #ddc8b3;
      }

      .cls-12, .cls-13, .cls-14 {
        mix-blend-mode: multiply;
      }

      .cls-13 {
        fill: #84b7ce;
      }

      .cls-5 {
        fill: #68471e;
      }

      .cls-6 {
        fill: #bc893f;
      }

      .cls-15 {
        fill: #e5e5cb;
        font-family: ArialRoundedMTBold, 'Arial Rounded MT Bold';
        font-size: 47px;
      }

      .cls-7 {
        fill: #538799;
      }

      .cls-14 {
        fill: #e5d2be;
      }

      .cls-8 {
        fill: #4c2008;
      }

      .cls-10 {
        fill: #563614;
      }
    </style>
  </defs>
  <g class="cls-11">
    <g id="Camada_2" data-name="Camada 2">
      <g id="Passarin">
        <g>
          <g>
            <path class="cls-5" d="M67.67,26.76c.66-.82,1.35-1.63,2.05-2.43-3.42,1.08-6.55,2.49-9.38,4.09,2.43-.68,4.87-1.24,7.33-1.66Z"/>
            <path class="cls-5" d="M102.97,26.8c-.48,.82-.96,1.65-1.42,2.49,6.88,2.27,12.55,5.31,16.91,8.17l-.36-.31c-2.88-2.5-8-6.96-15.13-10.34Z"/>
            <path class="cls-1" d="M131.27,62.24c1.83,.91,3.57,1.8,5.22,2.64-.9-2.33-1.91-4.9-3.18-7.62-.72,1.64-1.41,3.3-2.04,4.98Z"/>
            <path class="cls-1" d="M117.85,43.86c4.04,1.75,7.62,3.52,10.82,5.13-2.12-3.16-4.73-6.39-8.04-9.56-.97,1.45-1.9,2.92-2.78,4.42Z"/>
            <path class="cls-1" d="M61.94,34.84c1.56-2.53,3.27-4.97,5.14-7.34-2.94,.53-5.85,1.25-8.73,2.16l-.02-.05c-3.63,2.26-6.7,4.75-9.17,7.06,4.24-.84,8.5-1.45,12.78-1.83Z"/>
            <path class="cls-5" d="M117.53,44.42c-1.82,3.15-3.42,6.41-4.81,9.75,6.85,2.5,12.78,5.22,17.96,7.78,.7-1.84,1.45-3.67,2.26-5.47-1.01-2.08-2.18-4.24-3.58-6.43-3.45-1.74-7.37-3.71-11.83-5.64Z"/>
            <path class="cls-5" d="M78.56,34.57c1.25-2.76,2.63-5.47,4.12-8.13-4.91-.22-9.8,.07-14.64,.88-1.93,2.4-3.69,4.88-5.29,7.44,5.26-.42,10.54-.49,15.81-.2Z"/>
            <path class="cls-5" d="M136.83,65.77c-1.81-.93-3.74-1.91-5.78-2.93-1.14,3.07-2.13,6.18-2.95,9.31-.3,1.15-.58,2.3-.83,3.46,5.21,2.48,9.85,4.95,14,7.18-.85-5.79-2.33-11.49-4.44-17.02Z"/>
            <path class="cls-5" d="M88.37,63.09c-1.29-.26-2.6-.51-3.93-.75-4.31-.76-8.64-1.36-12.99-1.79-.53,3.38-.9,6.79-1.09,10.22,5.5,.86,10.95,1.96,16.35,3.31,.37-3.68,.92-7.35,1.65-10.99Z"/>
            <path class="cls-1" d="M105.89,79.96c.29-3.93,.87-7.84,1.71-11.69-5.68-1.92-11.85-3.65-18.59-5.04-.73,3.65-1.28,7.33-1.65,11.02,2.38,.6,4.74,1.24,7.1,1.94,3.86,1.14,7.67,2.4,11.43,3.78Z"/>
            <path class="cls-1" d="M74.28,45.69c.61-1.93,1.28-3.84,2.01-5.74,.62-1.6,1.28-3.19,1.98-4.76-5.32-.28-10.64-.2-15.94,.25-1.9,3.11-3.56,6.34-4.97,9.68,5.65-.11,11.29,.07,16.92,.57Z"/>
            <path class="cls-1" d="M69.71,70.68c.19-3.42,.55-6.82,1.08-10.18-5.94-.56-11.91-.82-17.88-.75-.57,2.99-.96,6.02-1.15,9.06,6.02,.34,12.01,.97,17.95,1.87Z"/>
            <path class="cls-5" d="M109.83,60.06c.61-1.86,1.29-3.71,2.03-5.53-5.7-2.05-12.03-3.94-19.07-5.44-.75,2.23-1.44,4.48-2.05,6.75-.6,2.24-1.13,4.5-1.6,6.77,6.74,1.4,12.92,3.12,18.6,5.04,.58-2.56,1.28-5.09,2.1-7.59Z"/>
            <path class="cls-1" d="M127.47,72c.83-3.18,1.84-6.34,2.99-9.45-5.18-2.56-11.13-5.29-17.99-7.79-.74,1.81-1.41,3.64-2.02,5.49-.82,2.5-1.52,5.04-2.1,7.61,6.79,2.32,12.86,4.89,18.31,7.47,.25-1.11,.51-2.22,.8-3.32Z"/>
            <path class="cls-5" d="M83.75,25.88c.33,.02,.65,.04,.98,.06,5.94,.44,11.35,1.6,16.18,3.14,.48-.86,.96-1.71,1.46-2.56-4.68-2.15-10.19-3.82-16.48-4.19-.74,1.17-1.45,2.35-2.14,3.55Z"/>
            <path class="cls-5" d="M70.89,59.88c.75-4.6,1.82-9.13,3.2-13.57-5.65-.49-11.32-.68-17-.55-.69,1.67-1.32,3.36-1.88,5.08-.89,2.71-1.61,5.48-2.18,8.29,5.96-.06,11.92,.2,17.85,.76Z"/>
            <path class="cls-1" d="M52.37,59.12c.57-2.87,1.31-5.71,2.22-8.49,.54-1.65,1.14-3.27,1.8-4.87-5.32,.14-10.63,.55-15.94,1.24-2.84,4.54-4.67,9.09-5.82,13.28,5.9-.69,11.82-1.08,17.73-1.16Z"/>
            <path class="cls-5" d="M97.52,37.18c7.6,1.71,14.1,4.03,19.73,6.43,.86-1.47,1.78-2.92,2.73-4.34-4.53-3.19-10.84-6.82-18.75-9.42-1.32,2.41-2.56,4.85-3.71,7.33Z"/>
            <path class="cls-1" d="M68.63,26.6c4.76-.75,9.57-1.01,14.39-.77,.68-1.19,1.4-2.37,2.13-3.54-.22,0-.44-.02-.67-.03-4.92-.14-9.46,.53-13.61,1.72-.77,.86-1.52,1.73-2.25,2.62Z"/>
            <path class="cls-1" d="M84.56,61.73c1.33,.24,2.64,.49,3.93,.75,.47-2.29,1-4.55,1.61-6.8,.61-2.26,1.3-4.5,2.04-6.72-1.07-.22-2.16-.44-3.27-.65-4.68-.87-9.39-1.51-14.11-1.94-1.39,4.44-2.46,8.98-3.21,13.57,4.35,.43,8.69,1.02,13.01,1.79Z"/>
            <path class="cls-5" d="M126.52,75.96c-5.44-2.58-11.51-5.16-18.29-7.48-.84,3.86-1.41,7.77-1.69,11.71,6.2,2.29,12.25,4.91,18.14,7.84,.36-4.04,.98-8.08,1.85-12.07Z"/>
            <path class="cls-5" d="M74.95,45.75c4.7,.44,9.39,1.08,14.05,1.94,1.13,.21,2.24,.43,3.34,.66,1.24-3.63,2.67-7.21,4.27-10.73-3.05-.66-6.27-1.24-9.68-1.67-2.65-.34-5.3-.58-7.95-.73-.73,1.63-1.42,3.28-2.06,4.94-.71,1.84-1.36,3.71-1.96,5.58Z"/>
            <path class="cls-1" d="M112.1,53.95c1.4-3.35,3.01-6.63,4.83-9.79-5.61-2.39-12.1-4.7-19.68-6.39-1.6,3.51-3.04,7.09-4.28,10.72,7.07,1.51,13.41,3.4,19.12,5.46Z"/>
            <path class="cls-1" d="M83.4,26.48c-1.51,2.65-2.89,5.37-4.14,8.13,2.59,.16,5.17,.39,7.76,.72,3.48,.44,6.75,1.02,9.85,1.7,1.15-2.5,2.4-4.97,3.73-7.4-4.76-1.51-10.07-2.65-15.91-3.08-.43-.03-.86-.06-1.28-.08Z"/>
            <path class="cls-5" d="M162.74,96.51s-.02-.02-.03-.02l.03-.03-1.35-10.6c-1.46-9.9-6.08-24.58-19.8-38.24-6.47-6.44-13.58-11.25-20.52-14.85-.04-.02-.09-.03-.13-.05h0c-7.59-3.93-14.97-6.4-21.09-7.95,9.01,3.49,15.36,9.01,18.7,11.92l.37,.33c11.39,9.9,15.5,20.61,18.5,28.44,4.01,10.46,5.79,21.45,5.29,32.67,7.35,.76,14.3,2.19,20.77,4.22l-.74-5.82Z"/>
            <path class="cls-8" d="M101.98,151.42l30.15,55.51c.69,1.01,1.76,1.35,2.18,1.13,.17-.09,.31-.32,.39-.61,.16-.64-.03-1.41-.5-2.08l-29.41-55.14c-.9,.45-1.84,.84-2.81,1.18Z"/>
            <path class="cls-1" d="M141.39,83.57c-4.22-2.26-8.94-4.79-14.26-7.33-.86,3.99-1.47,8.04-1.82,12.09,5.75,2.89,11.34,6.07,16.75,9.54,.2-4.82-.02-9.6-.66-14.3Z"/>
            <ellipse class="cls-9" cx="92.98" cy="129.41" rx="6.76" ry="6.59"/>
            <path class="cls-5" d="M37.14,108.81c17.23-.36,32.77-2.86,47.81-5.28,11.85-1.91,24.1-3.88,37-4.76,6.46-.44,12.94-.65,19.32-.63-14.52-9.26-30.33-16.44-47.01-21.36-17.44-5.14-35.55-7.7-53.79-7.66-11.51,2.26-21.41,6.72-29.41,13.25-4.37,3.56-10.98,8.95-9.76,14.13,.9,3.83,5.8,5.83,10.99,7.94,7.56,3.08,15.93,4.55,24.85,4.37Z"/>
            <path class="cls-6" d="M66.47,161.06c3.29-4.42,3.22-7.4,2.59-9.13-1.75-4.76-10.05-6.86-16.75-6.07-5.11,.6-8.22,2.86-18.25,10.61-6.17,4.77-12.35,9.61-18.39,14.39,6.98,.65,13.97,.69,20.79,.12,12.4-1.03,24.11-1.99,30.01-9.92Z"/>
            <path class="cls-4" d="M163.9,122.58c-15.68-8.84-32.23-16.43-49.22-22.56-10.21,1.01-20.05,2.59-29.62,4.13-15.06,2.43-30.63,4.93-47.9,5.29-.5,.01-1,.02-1.5,.02-.41,0-.82-.02-1.23-.03-1.26,3.72-4.94,6.1-8.67,5.55-2.43-.36-4.52-1.94-5.66-4.2-.35,1.84-.68,5.88,2.1,9.24,1.77,2.14,4.05,3.13,5.64,3.59l.37,.1-.16,.33c-1.11,2.25-3.64,3.59-6.15,3.26-1.76-.23-3.3-1.25-4.22-2.71,0,1.63,.39,4.37,2.56,6.49,3.07,3,8.21,3.48,12.5,1.18l.7-.38-.22,.74c-1.08,3.59-1.73,7.3-1.92,11.01-.23,4.43,.19,8.88,1.23,13.22,.38-.29,.76-.59,1.13-.88,10.14-7.83,13.29-10.12,18.58-10.74,6.95-.82,15.59,1.43,17.45,6.49,.69,1.87,.78,5.07-2.65,9.68-6,8.05-17.56,9.13-29.89,10.15,2.27,3.96,5,7.6,8.14,10.83,18.33,18.86,50.81,25.43,77.23,15.62,1.1-.41,2.21-.86,3.3-1.33l-24.47-45.04c-2.62,.86-5.44,1.33-8.37,1.33-13.96,0-25.32-10.56-25.32-23.55s11.36-23.55,25.32-23.55,25.32,10.56,25.32,23.55c0,8.8-5.22,16.48-12.93,20.52l24.04,45.07c13.9-6.91,25.91-17.69,32.99-29.63l.25-.43,.3,.4c1.12,1.51,3.06,3.5,5.96,4.43,4.95,1.59,10.89-.4,15.19-4.99-2.19,.89-4.54,1.09-6.63,.54-1.78-.47-3.2-1.48-3.91-2.75-1.51-2.73,.5-6.15,.74-6.53l.16-.25,.28,.13c2.49,1.21,5.09,1.84,7.74,1.85,.03,0,.05,0,.08,0,7.42,0,12.57-4.92,14.31-6.86-5.05,.21-9.87-1.98-12.68-5.83-3.53-4.82-2.39-10.18-2.05-11.45-5.24-3.4-11.31-7.16-18.23-11.06Zm-117.21,11.97c-3.63,0-6.58-3.24-6.58-7.22s2.95-7.22,6.58-7.22,6.58,3.24,6.58,7.22-2.95,7.22-6.58,7.22Z"/>
            <path class="cls-5" d="M40.44,68.49c3.56,0,7.12,.08,10.67,.27,.19-3.03,.58-6.04,1.14-9.01-5.93,.09-11.86,.48-17.78,1.18-.91,3.49-1.36,6.7-1.55,9.41,2.41-.72,4.89-1.34,7.46-1.84h.06Z"/>
            <ellipse class="cls-9" cx="46.69" cy="127.33" rx="5.92" ry="6.59"/>
            <path class="cls-7" d="M92.98,109.32c-11.6,0-21.04,9.01-21.04,20.09s9.44,20.09,21.04,20.09,21.04-9.01,21.04-20.09-9.44-20.09-21.04-20.09Zm0,27.31c-4.09,0-7.42-3.24-7.42-7.22s3.33-7.22,7.42-7.22,7.42,3.24,7.42,7.22-3.33,7.22-7.42,7.22Z"/>
            <path class="cls-8" d="M117.64,129.41c0-12.64-11.06-22.92-24.66-22.92s-24.66,10.28-24.66,22.92,11.06,22.92,24.66,22.92,24.66-10.28,24.66-22.92Zm-24.66,20.72c-11.97,0-21.7-9.3-21.7-20.72s9.73-20.72,21.7-20.72,21.7,9.3,21.7,20.72-9.73,20.72-21.7,20.72Z"/>
            <path class="cls-5" d="M82.19,21.63c.1-.46,.24-.9,.43-1.33l-.48,.19c-1.48-3.49-3.64-6.54-6.42-9.09-1.56-1.43-3.31-2.68-5.2-3.72l.33-.54c1.93,1.07,3.73,2.35,5.32,3.81,2.82,2.58,5.01,5.67,6.52,9.2,.77-1.6,2.13-2.92,3.84-3.79-2.48-4.67-6.19-8.52-10.76-11.13C70.37,2.15,62.77-.04,61.07,1.77c-1.66,1.76,2.63,7.48,5.92,10.9,3.68,3.82,8.37,6.85,13.95,9v.02c.41-.02,.83-.05,1.26-.06Z"/>
            <path class="cls-1" d="M177.58,92.98c-5.3-4.51-10.89-8.8-16.62-12.77,.47,1.97,.82,3.84,1.07,5.55l1.32,10.41c5.53,4.04,10.96,8.35,16.15,12.84-.06-5.43-.7-10.79-1.92-16.04Z"/>
            <path class="cls-5" d="M56.65,45.13c1.39-3.31,3.02-6.52,4.89-9.62-4.43,.4-8.85,1.06-13.23,1.97-3.56,3.45-5.71,6.35-6.28,7.15-.4,.56-.78,1.13-1.14,1.69,5.25-.66,10.5-1.06,15.76-1.19Z"/>
            <path class="cls-5" d="M163.47,97.05l.7,5.49c4.63,1.49,9.01,3.29,13.09,5.4-4.46-3.79-9.08-7.44-13.79-10.89Z"/>
            <path class="cls-5" d="M169.1,79.22c-3.69-3.34-7.6-6.53-11.62-9.53,1.43,3.37,2.48,6.59,3.24,9.58,5.72,3.93,11.29,8.19,16.6,12.67-.57-2.3-1.25-4.57-2.04-6.81-2-2.01-4.08-4-6.19-5.91Z"/>
            <path class="cls-1" d="M142.05,47.17c7.14,7.1,11.83,14.48,14.91,21.33,4.36,3.2,8.6,6.66,12.59,10.26,1.77,1.6,3.52,3.27,5.22,4.96-.05-.13-.09-.25-.14-.38-1.29-3.39-5.13-12.29-12.8-21.74-11.01-13.56-24.69-21.83-35.66-26.72,5.43,3.25,10.85,7.28,15.88,12.29Z"/>
            <path class="cls-5" d="M82.86,21.63c.55,0,1.09-.01,1.64,0,2.56,.07,4.99,.36,7.3,.81,.67-2.18,1.55-4.24,2.62-6.17-.52-.15-1.06-.27-1.6-.34-4.68-.62-9.04,1.92-9.96,5.7Z"/>
            <path class="cls-10" d="M188.84,116.18c-11.75-9.46-27.62-15.47-45.93-17.41h-.55c-6.71-.05-13.55,.16-20.36,.62-1.98,.14-3.94,.3-5.89,.49,16.6,6.07,32.78,13.52,48.12,22.16,12.57,7.09,22.32,13.7,29.44,18.53,8.66,5.87,13.88,9.42,15.55,7.98,.41-.36,.61-1.01,.59-1.94-.1-5.61-8.32-20.25-20.97-30.43Z"/>
            <path class="cls-5" d="M103.64,25.14c-.03-.25-.08-.5-.15-.74-.16-.56-.43-1.08-.78-1.56-.93,.46-1.88,.88-2.86,1.27,1.22,.31,2.48,.65,3.79,1.03Z"/>
            <path class="cls-5" d="M94.45,22.91c1.01-2.74,3.01-6.62,6.92-10.08,3.01-2.67,6.7-4.64,10.65-5.72l.18,.6c-2.69,.73-6.68,2.3-10.39,5.58-3.77,3.34-5.72,7.08-6.71,9.75,1.15,.23,2.38,.5,3.67,.81,4.55-1.67,8.52-4.1,11.8-7.24,5.11-4.91,9.75-12.63,7.88-14.64-1.86-1.99-10.72,1.37-16.64,6.31-4.33,3.61-7.55,8.54-9.34,14.27,.63,.11,1.29,.23,1.99,.36Z"/>
            <path class="cls-9" d="M46.69,120.11c-3.63,0-6.58,3.24-6.58,7.22s2.95,7.22,6.58,7.22,6.58-3.24,6.58-7.22-2.95-7.22-6.58-7.22Zm0,13.81c-3.26,0-5.92-2.96-5.92-6.59s2.65-6.59,5.92-6.59,5.92,2.96,5.92,6.59-2.65,6.59-5.92,6.59Z"/>
            <path class="cls-9" d="M92.98,122.19c-4.09,0-7.42,3.24-7.42,7.22s3.33,7.22,7.42,7.22,7.42-3.24,7.42-7.22-3.33-7.22-7.42-7.22Zm0,13.81c-3.73,0-6.76-2.96-6.76-6.59s3.03-6.59,6.76-6.59,6.76,2.96,6.76,6.59-3.03,6.59-6.76,6.59Z"/>
            <path class="cls-9" d="M189.26,115.7c-2.8-2.26-5.85-4.31-9.09-6.17-.04-9.07-1.69-17.95-4.92-26.41-1.3-3.42-5.17-12.39-12.9-21.91-12.88-15.86-29.38-24.53-41.02-29.03-5.96-3.08-11.79-5.28-17-6.84-.03-.38-.09-.75-.2-1.11-.18-.6-.46-1.16-.83-1.68,2.87-1.49,5.47-3.33,7.73-5.5,4.81-4.62,10.28-12.95,7.9-15.5-2.33-2.5-11.76,1.41-17.56,6.25-2.63,2.2-4.85,4.88-6.61,7.91-.6-.18-1.22-.32-1.85-.4-2.06-.27-4.06,.04-5.78,.78-2.54-4.78-6.34-8.72-11.02-11.39-4.97-2.83-13.36-5.65-15.54-3.34-2.58,2.74,5.04,10.83,5.92,11.75,3.48,3.62,7.86,6.53,13.02,8.67-22.69,1.86-36.45,20.27-38.04,22.5-6.81,9.58-8.79,19.52-9.24,26.26-8.22,2.54-15.46,6.34-21.6,11.35-4.49,3.66-11.28,9.2-9.97,14.75,.98,4.14,6.03,6.2,11.37,8.38,6.67,2.72,13.97,4.18,21.71,4.39-1.21,3.28-4.59,5.43-7.88,4.95-2.47-.37-4.64-2.22-5.54-4.72l-.34-.94-.29,.96c-.31,1.02-1.66,6.35,1.99,10.75,1.75,2.1,3.94,3.16,5.59,3.69-1.07,1.81-3.19,2.86-5.29,2.58-1.95-.26-3.62-1.62-4.25-3.48l-.45-1.34-.19,1.4c-.11,.84-.5,5.16,2.67,8.26,3.11,3.04,8.21,3.67,12.61,1.63-.97,3.42-1.56,6.93-1.74,10.45-.24,4.57,.2,9.16,1.3,13.64l.14-.03c-5.85,4.53-11.7,9.11-17.42,13.65l-.6,.48,.78,.08c4.01,.4,8.03,.6,12.01,.6,3.22,0,6.42-.13,9.58-.39,2.32,4.1,5.14,7.86,8.37,11.2,12.74,13.11,32.25,20.34,51.87,20.34,8.88,0,17.78-1.48,26.09-4.57,1.12-.42,2.25-.87,3.37-1.35l5.44,10.02c.68,1,1.67,1.5,2.43,1.5,.24,0,.45-.05,.63-.14,.34-.18,.59-.54,.71-1.02,.2-.8-.02-1.77-.57-2.54l-5.06-9.48c13.85-6.89,25.84-17.59,33.01-29.46,1.21,1.52,3.17,3.36,5.98,4.27,5.62,1.81,12.42-.75,16.93-6.36l1.05-1.31-1.48,.85c-2.42,1.38-5.17,1.81-7.55,1.17-1.61-.43-2.88-1.32-3.51-2.44-1.18-2.13,.09-4.79,.58-5.66,2.49,1.17,5.1,1.77,7.75,1.78,.03,0,.06,0,.08,0,8.39,0,13.83-5.86,15.3-7.66l.47-.57-.76,.07c-5.1,.46-10.03-1.66-12.85-5.52-3.19-4.36-2.38-9.19-2.01-10.72,4.01,2.61,7.54,5,10.58,7.06,7.79,5.28,12.4,8.42,14.95,8.42,.57,0,1.04-.16,1.41-.48,.56-.48,.83-1.29,.81-2.41-.1-5.73-8.42-20.61-21.2-30.9ZM40.45,47c5.3-.69,10.62-1.1,15.94-1.24-.65,1.6-1.26,3.22-1.8,4.87-.91,2.78-1.65,5.61-2.22,8.49-5.91,.08-11.83,.47-17.73,1.16,1.15-4.19,2.97-8.74,5.82-13.28Zm14.77,3.82c.56-1.72,1.19-3.41,1.88-5.08,5.67-.12,11.34,.06,17,.55-1.38,4.45-2.45,8.98-3.2,13.57-5.93-.56-11.89-.82-17.85-.76,.56-2.8,1.29-5.57,2.18-8.29Zm29.27-28.56c.22,0,.44,.02,.67,.03-.73,1.17-1.44,2.34-2.13,3.54-4.82-.24-9.63,.02-14.39,.77,.73-.88,1.47-1.76,2.25-2.62,4.15-1.19,8.69-1.86,13.61-1.72Zm17.89,4.26c-.5,.85-.98,1.7-1.46,2.56-4.83-1.54-10.24-2.7-16.18-3.14-.33-.02-.65-.04-.98-.06,.69-1.2,1.4-2.38,2.14-3.55,6.29,.38,11.8,2.04,16.48,4.19Zm17.6,12.74c-.95,1.43-1.86,2.87-2.73,4.34-5.63-2.4-12.13-4.71-19.73-6.43,1.15-2.48,2.39-4.93,3.71-7.33,7.9,2.6,14.22,6.23,18.75,9.42Zm-3.04,4.9c-1.82,3.17-3.43,6.44-4.83,9.79-5.72-2.06-12.06-3.95-19.12-5.46,1.24-3.63,2.67-7.21,4.28-10.72,7.58,1.7,14.06,4,19.68,6.39Zm-20.07-7.12c-3.1-.68-6.38-1.26-9.85-1.7-2.58-.33-5.17-.57-7.76-.72,1.26-2.76,2.64-5.48,4.14-8.13,.43,.02,.86,.05,1.28,.08,5.84,.43,11.15,1.57,15.91,3.08-1.33,2.43-2.57,4.9-3.73,7.4Zm-9.94-1.08c3.41,.43,6.63,1,9.68,1.67-1.6,3.52-3.03,7.09-4.27,10.73-1.1-.23-2.21-.45-3.34-.66-4.66-.86-9.35-1.51-14.05-1.94,.6-1.88,1.25-3.74,1.96-5.58,.64-1.66,1.33-3.31,2.06-4.94,2.65,.15,5.3,.4,7.95,.73Zm1.95,12.35c1.11,.2,2.19,.42,3.27,.65-.75,2.22-1.44,4.46-2.04,6.72-.6,2.24-1.14,4.51-1.61,6.8-1.29-.26-2.6-.51-3.93-.75-4.31-.77-8.65-1.36-13.01-1.79,.75-4.6,1.83-9.13,3.21-13.57,4.72,.43,9.43,1.08,14.11,1.94Zm1.86,7.52c.61-2.27,1.3-4.51,2.05-6.75,7.05,1.5,13.37,3.39,19.07,5.44-.74,1.82-1.42,3.66-2.03,5.53-.82,2.5-1.52,5.03-2.1,7.59-5.68-1.91-11.86-3.64-18.6-5.04,.47-2.28,1-4.54,1.6-6.77Zm19.72,4.41c.61-1.85,1.28-3.68,2.02-5.49,6.86,2.5,12.8,5.24,17.99,7.79-1.16,3.11-2.16,6.27-2.99,9.45-.29,1.1-.55,2.21-.8,3.32-5.45-2.58-11.52-5.15-18.31-7.47,.58-2.57,1.28-5.11,2.1-7.61Zm17.65,11.91c.82-3.13,1.81-6.25,2.95-9.31,2.04,1.01,3.97,2,5.78,2.93,2.11,5.54,3.59,11.23,4.44,17.02-4.16-2.23-8.8-4.7-14-7.18,.26-1.16,.53-2.31,.83-3.46Zm3.17-9.91c.63-1.68,1.32-3.34,2.04-4.98,1.28,2.71,2.29,5.28,3.18,7.62-1.65-.84-3.39-1.73-5.22-2.64Zm-.59-.29c-5.18-2.56-11.12-5.28-17.96-7.78,1.39-3.34,3-6.6,4.81-9.75,4.46,1.93,8.38,3.9,11.83,5.64,1.4,2.19,2.57,4.35,3.58,6.43-.81,1.8-1.56,3.62-2.26,5.47Zm-12.83-18.09c.88-1.5,1.81-2.97,2.78-4.42,3.31,3.17,5.92,6.39,8.04,9.56-3.2-1.61-6.78-3.39-10.82-5.13Zm-16.3-14.58c.46-.83,.94-1.66,1.42-2.49,7.13,3.39,12.25,7.84,15.13,10.34l.36,.31c-4.36-2.86-10.03-5.9-16.91-8.17Zm-33.88-2.53c-2.46,.42-4.91,.98-7.33,1.66,2.83-1.59,5.97-3.01,9.38-4.09-.7,.8-1.38,1.61-2.05,2.43Zm-9.32,2.91c2.88-.91,5.8-1.63,8.73-2.16-1.87,2.37-3.59,4.82-5.14,7.34-4.28,.37-8.54,.98-12.78,1.83,2.47-2.31,5.54-4.8,9.17-7.06l.02,.05Zm9.69-2.34c4.84-.81,9.73-1.11,14.64-.88-1.5,2.65-2.87,5.37-4.12,8.13-5.27-.29-10.55-.22-15.81,.2,1.6-2.56,3.37-5.04,5.29-7.44Zm10.23,7.86c-.7,1.57-1.36,3.16-1.98,4.76-.73,1.89-1.4,3.81-2.01,5.74-5.63-.5-11.27-.69-16.92-.57,1.41-3.33,3.07-6.56,4.97-9.68,5.3-.45,10.62-.53,15.94-.25Zm-7.48,25.31c-.53,3.36-.89,6.76-1.08,10.18-5.94-.91-11.93-1.53-17.95-1.87,.19-3.05,.58-6.07,1.15-9.06,5.97-.06,11.94,.19,17.88,.75Zm.66,.06c4.35,.43,8.68,1.02,12.99,1.79,1.33,.24,2.64,.49,3.93,.75-.72,3.64-1.28,7.31-1.65,10.99-5.4-1.34-10.86-2.45-16.35-3.31,.19-3.43,.55-6.84,1.09-10.22Zm17.56,2.67c6.74,1.4,12.91,3.13,18.59,5.04-.84,3.85-1.42,7.76-1.71,11.69-3.76-1.38-7.57-2.64-11.43-3.78-2.35-.69-4.72-1.34-7.1-1.94,.37-3.69,.92-7.37,1.65-11.02Zm19.22,5.25c6.79,2.32,12.85,4.9,18.29,7.48-.87,3.99-1.49,8.03-1.85,12.07-5.89-2.93-11.95-5.54-18.14-7.84,.28-3.94,.85-7.85,1.69-11.71Zm18.9,7.77c5.32,2.54,10.04,5.07,14.26,7.33,.64,4.71,.86,9.48,.66,14.3-5.41-3.47-11-6.66-16.75-9.54,.35-4.05,.96-8.1,1.82-12.09Zm15.58,21.86c.49-11.22-1.29-22.21-5.29-32.67-3-7.82-7.11-18.54-18.5-28.44l-.37-.33c-3.34-2.91-9.69-8.43-18.7-11.92,6.13,1.55,13.51,4.02,21.09,7.93h0s.09,.05,.13,.06c6.94,3.6,14.05,8.41,20.52,14.85,13.73,13.66,18.35,28.34,19.8,38.24l1.35,10.6-.03,.03s.02,.02,.03,.02l.74,5.82c-6.47-2.03-13.42-3.45-20.77-4.22Zm34.62-6.18c-5.31-4.47-10.88-8.74-16.6-12.67-.76-2.99-1.81-6.21-3.24-9.58,4.02,3,7.92,6.19,11.62,9.53,2.11,1.9,4.19,3.89,6.19,5.91,.79,2.24,1.47,4.52,2.04,6.81Zm-15.29-6.17c-.25-1.72-.6-3.58-1.07-5.55,5.73,3.97,11.32,8.26,16.62,12.77,1.22,5.24,1.86,10.61,1.92,16.04-5.19-4.49-10.62-8.8-16.15-12.84l-1.32-10.41Zm2.13,16.78l-.7-5.49c4.71,3.45,9.33,7.1,13.79,10.89-4.08-2.11-8.46-3.91-13.09-5.4Zm-2.34-40.95c7.67,9.45,11.51,18.35,12.8,21.74,.05,.13,.09,.25,.14,.38-1.7-1.69-3.45-3.36-5.22-4.96-3.99-3.61-8.23-7.06-12.59-10.26-3.08-6.85-7.77-14.22-14.91-21.33-5.04-5.01-10.46-9.04-15.88-12.29,10.97,4.89,24.65,13.16,35.66,26.72ZM103.49,24.4c.07,.24,.12,.49,.15,.74-1.31-.38-2.57-.72-3.79-1.03,.98-.39,1.93-.81,2.86-1.27,.35,.48,.61,1,.78,1.56Zm-1.68-16.13C107.73,3.34,116.59-.02,118.44,1.97c1.88,2.01-2.76,9.73-7.88,14.64-3.28,3.15-7.25,5.58-11.8,7.24-1.29-.31-2.51-.58-3.67-.81,.99-2.67,2.95-6.41,6.71-9.75,3.71-3.28,7.7-4.85,10.39-5.58l-.18-.6c-3.96,1.08-7.64,3.06-10.65,5.72-3.9,3.46-5.91,7.34-6.92,10.08-.69-.13-1.35-.25-1.99-.36,1.79-5.73,5.02-10.66,9.34-14.27Zm-8.98,7.66c.55,.07,1.08,.19,1.6,.34-1.06,1.93-1.94,3.99-2.62,6.17-2.31-.45-4.75-.74-7.3-.81-.56-.02-1.1,0-1.64,0,.92-3.78,5.29-6.32,9.96-5.7Zm-25.84-3.25c-3.28-3.42-7.57-9.14-5.92-10.9,1.7-1.81,9.31,.37,14.71,3.46,4.57,2.61,8.28,6.45,10.76,11.13-1.71,.87-3.07,2.18-3.84,3.79-1.52-3.52-3.71-6.62-6.52-9.2-1.6-1.46-3.39-2.75-5.32-3.81l-.33,.54c1.89,1.04,3.64,2.29,5.2,3.72,2.78,2.54,4.94,5.6,6.42,9.09l.48-.19c-.19,.42-.33,.87-.43,1.33-.43,0-.84,.04-1.26,.06v-.02c-5.57-2.15-10.27-5.17-13.94-9Zm-24.96,31.95c.57-.8,2.71-3.69,6.28-7.15,4.39-.91,8.8-1.56,13.23-1.97-1.87,3.1-3.5,6.31-4.89,9.62-5.26,.13-10.52,.53-15.76,1.19,.37-.56,.75-1.13,1.14-1.69Zm-7.56,16.3c5.92-.7,11.85-1.09,17.78-1.18-.56,2.97-.95,5.98-1.14,9.01-3.54-.19-7.1-.28-10.67-.27h-.06c-2.57,.51-5.05,1.13-7.46,1.85,.2-2.71,.64-5.92,1.55-9.41ZM1.31,96.5c-1.22-5.18,5.38-10.57,9.76-14.13,8-6.53,17.9-10.98,29.41-13.25,18.24-.05,36.35,2.52,53.79,7.66,16.68,4.91,32.49,12.1,47.01,21.36-6.38-.02-12.86,.19-19.32,.63-12.9,.88-25.15,2.85-37,4.76-15.03,2.42-30.58,4.93-47.81,5.28-8.93,.18-17.29-1.29-24.85-4.37-5.19-2.11-10.08-4.11-10.99-7.94Zm14.37,74.35c6.04-4.78,12.22-9.62,18.39-14.39,10.02-7.75,13.14-10.01,18.25-10.61,6.7-.79,15,1.31,16.75,6.07,.63,1.73,.7,4.71-2.59,9.13-5.9,7.92-17.61,8.89-30.01,9.92-6.82,.56-13.81,.52-20.79-.12Zm119.02,36.59c-.07,.29-.22,.52-.39,.61-.42,.23-1.49-.11-2.18-1.13l-30.15-55.51c.97-.34,1.9-.74,2.81-1.18l29.41,55.14c.47,.66,.66,1.44,.5,2.08Zm-41.72-55.11c-13.6,0-24.66-10.28-24.66-22.92s11.06-22.92,24.66-22.92,24.66,10.28,24.66,22.92-11.06,22.92-24.66,22.92Zm91.19-7.24c2.82,3.85,7.64,6.04,12.68,5.83-1.74,1.94-6.89,6.86-14.31,6.86-.03,0-.05,0-.08,0-2.65-.01-5.26-.63-7.74-1.85l-.28-.13-.16,.25c-.24,.38-2.25,3.8-.74,6.53,.71,1.27,2.13,2.28,3.91,2.75,2.09,.56,4.44,.36,6.63-.54-4.3,4.58-10.24,6.58-15.19,4.99-2.9-.93-4.84-2.93-5.96-4.43l-.3-.4-.25,.43c-7.08,11.93-19.09,22.71-32.99,29.63l-24.04-45.07c7.71-4.04,12.93-11.72,12.93-20.52,0-12.98-11.36-23.55-25.32-23.55s-25.32,10.56-25.32,23.55,11.36,23.55,25.32,23.55c2.93,0,5.75-.47,8.37-1.33l24.47,45.04c-1.1,.47-2.21,.92-3.3,1.33-26.42,9.81-58.9,3.25-77.23-15.62-3.14-3.23-5.87-6.87-8.14-10.83,12.32-1.02,23.89-2.1,29.89-10.15,3.43-4.61,3.34-7.81,2.65-9.68-1.85-5.06-10.5-7.31-17.45-6.49-5.29,.62-8.44,2.91-18.58,10.74-.38,.29-.75,.59-1.13,.88-1.04-4.34-1.46-8.79-1.23-13.22,.19-3.72,.84-7.42,1.92-11.01l.22-.74-.7,.38c-4.29,2.31-9.44,1.82-12.5-1.18-2.17-2.12-2.55-4.86-2.56-6.49,.91,1.46,2.46,2.48,4.22,2.71,2.5,.33,5.03-1.01,6.15-3.26l.16-.33-.37-.1c-1.59-.46-3.87-1.45-5.64-3.59-2.79-3.36-2.45-7.4-2.1-9.24,1.14,2.27,3.24,3.84,5.66,4.2,3.73,.55,7.41-1.83,8.67-5.55,.41,0,.81,.03,1.23,.03,.5,0,1,0,1.5-.02,17.28-.36,32.85-2.87,47.9-5.29,9.57-1.54,19.4-3.12,29.62-4.13,16.98,6.14,33.54,13.73,49.22,22.56,6.92,3.9,12.99,7.66,18.23,11.06-.34,1.27-1.48,6.63,2.05,11.45Zm25.04,3.46c-1.67,1.44-6.89-2.11-15.55-7.98-7.12-4.83-16.87-11.44-29.44-18.53-15.34-8.65-31.52-16.09-48.12-22.16,1.95-.18,3.91-.35,5.89-.49,6.81-.46,13.65-.67,20.36-.63h.55c18.3,1.95,34.18,7.96,45.93,17.42,12.65,10.18,20.87,24.82,20.97,30.43,.02,.93-.18,1.58-.59,1.94Z"/>
            <path class="cls-9" d="M92.98,108.69c-11.97,0-21.7,9.3-21.7,20.72s9.73,20.72,21.7,20.72,21.7-9.3,21.7-20.72-9.73-20.72-21.7-20.72Zm0,40.81c-11.6,0-21.04-9.01-21.04-20.09s9.44-20.09,21.04-20.09,21.04,9.01,21.04,20.09-9.44,20.09-21.04,20.09Z"/>
            <ellipse class="cls-3" cx="86.07" cy="126.94" rx="1.79" ry="1.94" transform="translate(-66.21 145.16) rotate(-62.68)"/>
            <ellipse class="cls-3" cx="40.86" cy="123.71" rx="1.79" ry="1.94" transform="translate(-87.81 103.25) rotate(-62.68)"/>
          </g>
          <line class="cls-2" x1="82.7" y1="20.15" x2="82.19" y2="21.63"/>
          <path class="cls-12" d="M23.58,171.37c-.15-1.04,19.21-.29,32.97-11.7,4.6-3.81,7.74-7.9,9.86-11.3,.87,.73,2.06,1.97,2.63,3.77,1.42,4.45-2.17,8.72-3.29,10.05-4.28,5.09-10.66,6.53-15.12,7.53-2.46,.55-4.71,.79-9.21,1.26-3.77,.39-6.76,.56-9.21,.63-4.46,.13-8.57,.25-8.64-.23Z"/>
          <path class="cls-13" d="M36.9,171.37c1.66-.02,3.88-.11,6.5-.4,2.52-.28,5.86-.66,9.86-1.88,2.54-.77,6.03-2.09,9.86-4.4-5.79,3.54-10.86,5.64-14.47,6.91-8.93,3.14-10.68,1.82-11.18,1.26-.43-.48-.55-1.06-.58-1.49Z"/>
          <path class="cls-13" d="M17.75,123.88c.18,1.04,.81,3.82,3.29,6.28,2.76,2.73,6.04,3.33,7.09,3.49-.58,.1-4.07,.64-7.09-1.6-2.53-1.88-3.78-5.01-3.29-8.16Z"/>
          <path class="cls-13" d="M144.09,185.74c2.43-3.3,16.18-22.65,10.44-47.42-3.78-16.32-14.04-26.48-18.44-30.38,2.96,1.7,7.5,4.24,13.18,7.15,7.87,4.04,10.99,5.23,16.44,8.16,4.06,2.18,9.81,5.54,16.42,10.39-1.06,5.08,.69,10.25,4.62,13.47,4.44,3.64,9.78,3.24,10.82,3.14-.75,1.13-3.7,5.22-9.5,6.91-6.63,1.92-12.09-.72-13.15-1.26-1.56,2.28-1.87,5.03-.66,6.91,1.78,2.74,6.89,3.71,10.95,.75-.36,.61-3.56,5.87-10.29,6.78-7.28,.99-12.12-3.99-12.49-4.4-2.1,3.48-5.07,7.67-9.21,11.93-3.17,3.27-6.33,5.86-9.12,7.87Z"/>
          <polygon class="cls-13" points="108.54 100.7 119.38 101.76 114.68 99.66 108.54 100.7"/>
          <path class="cls-13" d="M130.71,194.35l-23.44-44.12c2.04-1.1,7.29-4.27,10.43-10.65,3.65-7.41,2.1-14.32,1.32-16.95-.57-1.9-2.2-7.15-7.23-11.3-8.84-7.29-21.01-5.28-21.04-5.02-.03,.23,9.79-.94,17.75,5.02,6.58,4.92,8.28,12,8.55,13.19,1.68,7.47-1.11,13.33-1.97,15.07-2.97,6.01-7.7,9.17-9.71,10.36,8.01,15.02,16.03,30.05,24.04,45.07l1.3-.66Z"/>
          <path class="cls-14" d="M21.98,75.32c-1.15,.86-11.43,8.7-9.49,16.54,.97,3.9,4.75,6.89,11.18,9.42,28.58,11.22,76.12,.17,76.07-.05-.02-.11-11.73,2.64-41.22,6.33-12.62,1.58-18.68,2-26.3,1.26-3.18-.31-29.34-3.07-30.91-12.56-.75-4.52,4.32-9.24,8.55-13.19,4.5-4.19,9.13-6.51,12.12-7.75Z"/>
          <path class="cls-14" d="M99.95,24.68c6.62,2.41,29.13,11.52,42.74,35.16,9.49,16.48,10.09,32.1,9.86,39.56,5.86,1.75,12.02,3.82,18.41,6.28,3.19,1.23,6.26,2.49,9.21,3.77-.49-8.77-2.84-27.83-16.44-45.84-.63-.83-12.57-16.52-28.28-24.49-3.88-1.97-12.47-5.74-15.12-6.91-4.66-2.04-8.14-3.5-12.49-5.02-3.22-1.13-5.94-1.95-7.89-2.51Z"/>
          <path class="cls-14" d="M79.56,21.54c-.12-.98-.33-2.03-.66-3.14-1.33-4.47-4-7.59-5.92-9.42,1.56,.93,3.82,2.51,5.92,5.02,1.99,2.38,3.1,4.69,3.71,6.3,0,.18,.02,.8-.43,1.23-.58,.57-1.7,.62-2.63,0Z"/>
          <path class="cls-14" d="M93.37,22.79c1.33-3.9,3.29-6.6,4.6-8.16,4.72-5.61,10.5-7.53,12.49-8.16,1.45-.46,6.85-2.18,7.89-.63,.72,1.06-.98,3.16-3.95,6.91-1.5,1.9-4.09,5.12-7.89,7.53-.67,.43-1.55,.91-3.29,1.88-2.07,1.15-3.12,1.7-3.95,1.88-.92,.21-2.97,.44-5.92-1.26Z"/>
          <path class="cls-14" d="M98.93,23.85l3.81-1.41c.21,.15,.92,.66,1.16,1.61,.14,.54,.06,1,0,1.26-1.66-.48-3.31-.97-4.97-1.45Z"/>
          <text class="cls-15" transform="translate(130.99 122.11) rotate(-12.02)"><tspan x="0" y="0">?</tspan></text>
        </g>
      </g>
    </g>
  </g>
</svg>