<?xml version="1.0" encoding="UTF-8"?>
<svg id="Camada_2" data-name="Camada 2" xmlns="http://www.w3.org/2000/svg" viewBox="0 0 49.43 72.45">
  <defs>
    <style>
      .cls-1 {
        fill: #fff;
      }
    </style>
  </defs>
  <g id="Conteudo">
    <path class="cls-1" d="M25.69,67.32c0,1.51-.45,2.75-1.36,3.7-.91,.96-2.08,1.44-3.51,1.44H4.87c-1.43,0-2.6-.48-3.51-1.44-.91-.96-1.36-2.19-1.36-3.7v-18.38H6.09v17.82h13.51V0h6.09V67.32Z"/>
    <path class="cls-1" d="M49.43,43.71c0,1.09-.41,1.98-1.24,2.68-.83,.7-1.89,1.05-3.17,1.05h-14.54v20.66h-5.48V16.03h20.02c1.29,0,2.35,.34,3.17,1.03,.83,.69,1.24,1.58,1.24,2.66v23.99Zm-5.48-.4V20.13h-13.48v23.19h13.48Z"/>
  </g>
</svg>