<?xml version="1.0" encoding="UTF-8"?>
<svg id="Camada_2" data-name="Camada 2" width="400" height="400" xmlns="http://www.w3.org/2000/svg" viewBox="0 0 147.86 87.06">
  <defs>
    <style>
      .cls-1 {
        letter-spacing: 2.11em;
      }

      .cls-2 {
        font-family: BerlinSansFBDemi-Bold, 'Berlin Sans FB Demi';
        font-size: 9.72px;
      }

      .cls-3 {
        letter-spacing: 2.06em;
      }
    </style>
  </defs>
  <g id="Camada_3" data-name="Camada 3">
    <g>
      <path d="M6.31,.15c1.54-.1,2.78,.3,5.26,1.09,3.71,1.19,4.45,2.21,4.74,2.72,.5,.89,.53,1.76,.53,2.18V60.64c.49,2.33,2.53,3.94,4.74,3.81,2.02-.12,3.77-1.68,4.21-3.81,.18-17.98,.35-35.96,.53-53.94-.06-.25-.5-1.88-2.1-2.72-1.79-.94-3.5-.1-3.68,0,.4-1.46,1.08-2.28,1.58-2.72,1.74-1.58,4.13-1.33,7.45-.99,.78,.08,2.31,.31,4.13,.99,1.53,.57,2.17,1.07,2.63,1.63,.71,.88,.95,1.89,1.05,2.72,.32,2.5,.55,11.86,.53,24.52,4.38-3.81,8.77-7.63,13.15-11.44,.57-.4,1.69-1.04,3.16-1.09,2.33-.08,5,1.34,5.79,3.81,.4,1.27,.19,2.44,0,3.11-.29,.96-.77,1.51-1.05,1.79-1.39,1.36-3.38,1.17-4.21,1.09-.93-.09-1.66-.35-2.1-.54l-3.16-1.63-10.52,8.72c1.19,2.01,3.78,5.76,8.42,8.72,4.52,2.87,8.8,3.6,11.05,3.81v16.35c1.21,1.32,2.34,1.9,3.16,2.18,.87,.3,1.58,.42,2.1,1.09,.53,.67,.57,1.54,.53,2.18h-17.36c.18-7.45,.35-14.89,.53-22.34l-9.43-7.35-.04,23.69c.54,2.18,1.39,2.97,2.1,3.27,1.21,.5,2.36-.19,3.16,.54,.58,.54,.59,1.5,.53,2.18-2.74,0-7.91,.02-14.73,0-6.27-.02-9.48-.06-13.15-1.63-1.75-.75-4.62-2.02-6.84-4.9-2.95-3.83-3.16-8.39-3.16-10.9V6.69c-.35-.49-1.18-1.52-2.63-2.18-1.36-.62-2.57-.59-3.16-.54,.19-.42,.51-1.03,1.05-1.63C2.81,.38,5.31,.22,6.31,.15Z"/>
      <path d="M97.87,1.79c.5-.04,1.39-.03,2.1,.54,.79,.64,1.06,1.64,1.05,2.18-.04,7.19-.07,12.6,0,15.26,0,.32,.08,1.32-.53,2.18-1,1.43-3.02,1.52-4.21,1.63,0,0-4.33,.41-9.47,3.27-1.82,1.01-4.24,2.99-6.28,7.28,1.3,1.99,4.08,5.7,8.91,8.52,4.79,2.8,9.26,3.34,11.58,3.46v16.46c.52,1.01,1.14,1.56,1.58,1.87,.94,.66,2.2,.98,2.63,1.09,.98,.25,1.36,.21,1.58,.54,.34,.53-.09,1.46-.53,2.18-5.95,0-11.9,0-17.85,.01l-.04-22.9-8.42-5.99v22.89c.7,.73,1.4,1.45,2.1,2.18,.35,.29,.88,.69,1.58,1.09,.89,.51,1.39,.62,1.58,1.09,.12,.3,.14,.8-.39,1.65h-16.59l.15-61.04c-1.29-2.09-2.38-2.64-3.16-2.72-.33-.04-1.02-.04-1.58-.54-.09-.08-.6-.54-.53-1.09,.07-.55,.71-1.05,1.58-1.09h33.15Zm-17.89,27.12c.98-1.32,2.66-3.2,5.26-4.8,1.63-1.01,3.19-1.63,4.43-2.03V5.17h-9.7V28.91Z"/>
      <path d="M115.76,6.15c1.85-.5,3.74,.17,4.74,1.63,1.12,1.64,.72,3.7,0,4.9-1.57,2.62-6.01,3.36-8.42,1.09-2.07-1.95-1.63-5.14-1.58-5.45,.37-.86,1.02-2.07,2.1-3.27,1.35-1.49,2.77-2.3,3.68-2.72,1.19-.21,2.42-.39,3.68-.54,8.44-1.01,16.11-.29,22.63,1.09-.05,19.47-.1,38.95-.15,58.42,.64,1.78,1.52,2.67,2.25,3.15,1.03,.68,1.97,.69,2.63,1.63,.5,.72,.56,1.57,.53,2.19h-16.69l-.15-18.54h-9.47v13.08c.73,1.25,1.52,1.86,2.1,2.18,.9,.5,1.53,.46,2.1,1.09,.59,.66,.68,1.57,.68,2.19h-16.46V29.89c1.83,.08,8.31,.12,14.21-4.67,4.31-3.5,6.14-7.83,6.84-9.81,.1-.73,.62-4.85-2.1-8.17-1.29-1.57-2.8-2.35-3.72-2.72-.75-.32-2.73-1.06-5.22-.54-2.17,.45-3.59,1.61-4.21,2.18Zm5.49,40.24h9.77V23.27c-1.19,1.49-2.75,3.2-4.74,4.9-1.79,1.54-3.53,2.72-5.04,3.62v14.6Z"/>
      <text class="cls-2" transform="translate(41.38 83.81) scale(.99 1)"><tspan x="0" y="0">B</tspan><tspan class="cls-1" x="6.21" y="0">	</tspan><tspan x="29.15" y="0">A</tspan><tspan class="cls-3" x="35.89" y="0">	</tspan><tspan x="58.29" y="0">R</tspan></text>
      <ellipse cx="20.78" cy="84.07" rx="4.02" ry="1.07" transform="translate(-54.24 40.82) rotate(-46.15)"/>
      <ellipse cx="19.77" cy="82.22" rx="3.96" ry="1.09" transform="translate(-21.37 8.34) rotate(-15.59)"/>
      <ellipse cx="19.47" cy="79.98" rx="1.09" ry="3.96" transform="translate(-62.8 77.24) rotate(-74.41)"/>
      <ellipse cx="20.82" cy="78.4" rx="1.07" ry="4.02" transform="translate(-48.51 36.28) rotate(-43.85)"/>
      <ellipse cx="129.6" cy="83.96" rx="1.07" ry="4.02" transform="translate(-22.03 113.18) rotate(-43.85)"/>
      <ellipse cx="130.61" cy="82.11" rx="1.09" ry="3.96" transform="translate(16.42 185.85) rotate(-74.41)"/>
      <ellipse cx="130.91" cy="79.87" rx="3.96" ry="1.09" transform="translate(-16.65 38.12) rotate(-15.59)"/>
      <ellipse cx="129.56" cy="78.3" rx="4.02" ry="1.07" transform="translate(-16.66 117.5) rotate(-46.15)"/>
    </g>
  </g>
</svg>